# xmcd CD database file
#
# Track frame offsets:
#	150
#	24770
#	53367
#	79950
#	109290
#	126622
#	147890
#	168750
#	191065
#	215192
#
# Disc length: 3259 seconds
#
# Revision: 0
# Processed by: cddbd v1.4PL0 Copyright (c) Steve Scherf et al.
# Submitted via: CDex 1.50beta9
#
DISCID=8c0cb90a
DTITLE=Tyrone Brown String Sextet - Song of the Sun
DYEAR=1999
DGENRE=Jazz
TTITLE0=Subterranean Dream
TTITLE1=Eh-Leigh
TTITLE2=Bittersweet Rendezvous
TTITLE3=Song of the Sun
TTITLE4=All The Things You Are
TTITLE5=Portrait of the Artist
TTITLE6=Softly as in a Morning Sunrise
TTITLE7=Matador
TTITLE8=The Tap Dancer
TTITLE9=Peace
EXTD=YEAR: 1999
EXTT0=
EXTT1=
EXTT2=
EXTT3=
EXTT4=
EXTT5=
EXTT6=
EXTT7=
EXTT8=
EXTT9=
PLAYORDER=
